<svg width="10" height="14" viewBox="0 0 10 14" fill="none" xmlns="http://www.w3.org/2000/svg">
<g clip-path="url(#clip0)">
<path d="M8.91245 6.40289L5.21245 10.1129C5.09495 10.2304 4.90495 10.2304 4.78745 10.1129L1.08745 6.40289C0.969951 6.28539 0.969951 6.09539 1.08745 5.97789L1.57745 5.48789C1.69745 5.36789 1.88995 5.37039 2.00495 5.49289L4.34745 7.92039V1.70039C4.34745 1.53539 4.48245 1.40039 4.64745 1.40039H5.34745C5.51245 1.40039 5.64745 1.53539 5.64745 1.70039V7.92039L7.98995 5.49289C8.10745 5.37289 8.29995 5.37039 8.41745 5.48789L8.90745 5.97789C9.02995 6.09539 9.02995 6.28539 8.91245 6.40289ZM9.49995 11.3004H0.499951C0.334951 11.3004 0.199951 11.4354 0.199951 11.6004V12.3004C0.199951 12.4654 0.334951 12.6004 0.499951 12.6004H9.49995C9.66495 12.6004 9.79995 12.4654 9.79995 12.3004V11.6004C9.79995 11.4354 9.66495 11.3004 9.49995 11.3004Z" fill="white"/>
</g>
<defs>
<clipPath id="clip0">
<rect width="9.6" height="12.8" fill="white" transform="translate(0.199951 0.599609)"/>
</clipPath>
</defs>
</svg>

