<svg width="14" height="14" viewBox="0 0 14 14" fill="none" xmlns="http://www.w3.org/2000/svg">
<g clip-path="url(#clip0)">
<path d="M7.30205 0.798828C3.87705 0.798828 1.10205 3.57383 1.10205 6.99883C1.10205 10.4238 3.87705 13.1988 7.30205 13.1988C10.727 13.1988 13.5021 10.4238 13.5021 6.99883C13.5021 3.57383 10.727 0.798828 7.30205 0.798828ZM7.30205 11.9988C4.53955 11.9988 2.30205 9.76133 2.30205 6.99883C2.30205 4.23633 4.53955 1.99883 7.30205 1.99883C10.0646 1.99883 12.302 4.23633 12.302 6.99883C12.302 9.76133 10.0646 11.9988 7.30205 11.9988ZM9.70205 4.99883V8.99883C9.70205 9.21883 9.52205 9.39883 9.30205 9.39883H8.10205C7.88205 9.39883 7.70205 9.21883 7.70205 8.99883V4.99883C7.70205 4.77883 7.88205 4.59883 8.10205 4.59883H9.30205C9.52205 4.59883 9.70205 4.77883 9.70205 4.99883ZM6.90205 4.99883V8.99883C6.90205 9.21883 6.72205 9.39883 6.50205 9.39883H5.30205C5.08205 9.39883 4.90205 9.21883 4.90205 8.99883V4.99883C4.90205 4.77883 5.08205 4.59883 5.30205 4.59883H6.50205C6.72205 4.59883 6.90205 4.77883 6.90205 4.99883Z" fill="white" fill-opacity="0.6"/>
</g>
<defs>
<clipPath id="clip0">
<rect width="12.8" height="12.8" fill="white" transform="translate(0.9021 0.599609)"/>
</clipPath>
</defs>
</svg>
