<svg width="14" height="14" viewBox="0 0 14 14" fill="none" xmlns="http://www.w3.org/2000/svg">
<g clip-path="url(#clip0)">
<path d="M9.89255 6.54883L5.49255 3.87383C5.09755 3.65383 4.60005 3.93633 4.60005 4.39883V9.59883C4.60005 10.0588 5.09505 10.3438 5.49255 10.1238L9.89255 7.59883C10.3025 7.37133 10.3025 6.77883 9.89255 6.54883ZM13.2 6.99883C13.2 3.57383 10.425 0.798828 7.00005 0.798828C3.57505 0.798828 0.800049 3.57383 0.800049 6.99883C0.800049 10.4238 3.57505 13.1988 7.00005 13.1988C10.425 13.1988 13.2 10.4238 13.2 6.99883ZM2.00005 6.99883C2.00005 4.23633 4.23755 1.99883 7.00005 1.99883C9.76255 1.99883 12 4.23633 12 6.99883C12 9.76133 9.76255 11.9988 7.00005 11.9988C4.23755 11.9988 2.00005 9.76133 2.00005 6.99883Z" fill="white"/>
</g>
<defs>
<clipPath id="clip0">
<rect width="12.8" height="12.8" fill="white" transform="translate(0.600098 0.599609)"/>
</clipPath>
</defs>
</svg>
