<svg width="14" height="14" viewBox="0 0 14 14" fill="none" xmlns="http://www.w3.org/2000/svg">
<g clip-path="url(#clip0)">
<path d="M13.3125 12.3221L10.2775 9.28711C10.22 9.22961 10.145 9.19961 10.065 9.19961H9.73497C10.5225 8.28711 11 7.09961 11 5.79961C11 2.92711 8.67247 0.599609 5.79998 0.599609C2.92748 0.599609 0.599976 2.92711 0.599976 5.79961C0.599976 8.67211 2.92748 10.9996 5.79998 10.9996C7.09998 10.9996 8.28748 10.5221 9.19998 9.73461V10.0646C9.19998 10.1446 9.23248 10.2196 9.28747 10.2771L12.3225 13.3121C12.44 13.4296 12.63 13.4296 12.7475 13.3121L13.3125 12.7471C13.43 12.6296 13.43 12.4396 13.3125 12.3221ZM5.79998 9.79961C3.58998 9.79961 1.79998 8.00961 1.79998 5.79961C1.79998 3.58961 3.58998 1.79961 5.79998 1.79961C8.00997 1.79961 9.79998 3.58961 9.79998 5.79961C9.79998 8.00961 8.00997 9.79961 5.79998 9.79961Z" fill="white"/>
</g>
<defs>
<clipPath id="clip0">
<rect width="12.8" height="12.8" fill="white" transform="translate(0.599976 0.599609)"/>
</clipPath>
</defs>
</svg>
